<svg xmlns="http://www.w3.org/2000/svg" width="33.123" height="33.123" viewBox="0 0 33.123 33.123">
    <defs>
        <style>
            .cls-1{fill:#98dbc7;opacity:.281}.cls-2{fill:#47c690}
        </style>
    </defs>
    <g id="Group_1073" data-name="Group 1073" transform="translate(-272 -322.799)">
        <rect id="Rectangle_60" width="33.123" height="33.123" class="cls-1" data-name="Rectangle 60" rx="11" transform="translate(272 322.799)"/>
        <g id="Group_1072" data-name="Group 1072" transform="translate(14.702 899.779)">
            <path id="Path_804" d="M272.475-560.623c.222.116.427.209.618.326a2.833 2.833 0 0 1 1.331 2.259 3.862 3.862 0 0 1-.868 2.972 3.484 3.484 0 0 1-2.306 1.258 13.252 13.252 0 0 1-1.662.125c-1.846.015-3.693.006-5.539.006h-.19V-566.6c.061 0 .121-.008.181-.008h5.965a5.531 5.531 0 0 1 2.006.323 2.9 2.9 0 0 1 1.924 2.146 3.867 3.867 0 0 1-.011 1.82 2.419 2.419 0 0 1-1.223 1.563zm-5.635 4.708h.873c.823-.011 1.647-.008 2.47-.044a1.544 1.544 0 0 0 1.134-.515 1.935 1.935 0 0 0 .39-1.6 1.262 1.262 0 0 0-.97-1.129 4.8 4.8 0 0 0-1.14-.156c-.863-.022-1.727-.007-2.591-.007-.054 0-.108.008-.165.012zm.007-8.489c-.01.085-.016.112-.016.14v2.623c0 .141.076.136.173.136h2.469a4.289 4.289 0 0 0 .778-.066c.561-.11 1.056-.33 1.17-.972a2.461 2.461 0 0 0 .019-.759 1.006 1.006 0 0 0-.715-.87 1.761 1.761 0 0 0-.462-.109c-1.135-.05-2.268-.085-3.416-.119z" class="cls-2" data-name="Path 804"/>
            <path id="Path_805" d="M613.45-472.953h-6.721a2.094 2.094 0 0 0 1.25 2.109 2.547 2.547 0 0 0 1.99 0 1.4 1.4 0 0 0 .715-.6.461.461 0 0 1 .486-.264c.647.018 1.3.006 1.943.006h.2a1.778 1.778 0 0 1-.29.871 3.986 3.986 0 0 1-2.439 1.922 5.281 5.281 0 0 1-4.866-.894 3.527 3.527 0 0 1-1.255-2.072 7.037 7.037 0 0 1 .108-3.7 3.891 3.891 0 0 1 2.175-2.487 5.219 5.219 0 0 1 4.268-.018 3.786 3.786 0 0 1 1.919 1.879 5.391 5.391 0 0 1 .518 2.29c.01.311-.001.618-.001.958zm-2.52-1.608a1.93 1.93 0 0 0-2.053-1.96 1.98 1.98 0 0 0-2.093 1.96z" class="cls-2" data-name="Path 805" transform="translate(-328.798 -85.071)"/>
            <path id="Path_806" d="M662.439-550.734h5.179v1.275h-5.179z" class="cls-2" data-name="Path 806" transform="translate(-384.989 -15.331)"/>
        </g>
    </g>
</svg>
