<svg xmlns="http://www.w3.org/2000/svg" width="33.123" height="33.123" viewBox="0 0 33.123 33.123">
    <defs>
        <style>
            .cls-1{fill:#98dbc7;opacity:.281}.cls-2{fill:#47c690}
        </style>
    </defs>
    <g id="Group_1074" data-name="Group 1074" transform="translate(-229 -322.799)">
        <rect id="Rectangle_60" width="33.123" height="33.123" class="cls-1" data-name="Rectangle 60" rx="11" transform="translate(229 322.799)"/>
        <path id="Path_803" d="M206.045 76.544a10.131 10.131 0 1 0 10.131 10.131 10.131 10.131 0 0 0-10.131-10.131zm5.064 3.788a10.465 10.465 0 0 1-3.982 2.839 29.875 29.875 0 0 0-2.789-4.42c1.594-.725 5.256.129 6.771 1.581zm-8.669-.964a26.271 26.271 0 0 1 2.912 4.437 23.508 23.508 0 0 1-7.222.89 8.26 8.26 0 0 1 4.31-5.327zm-4.549 7.188a25.767 25.767 0 0 0 8.3-1.051l.47 1.076a13.438 13.438 0 0 0-6.839 5.326 8.13 8.13 0 0 1-1.93-5.351zm3.31 6.64a11.538 11.538 0 0 1 6.117-4.867 37.439 37.439 0 0 1 1.589 5.946A7.966 7.966 0 0 1 201.2 93.2zm9.509.147l-1.487-5.431a12.11 12.11 0 0 1 4.818.28 8.172 8.172 0 0 1-3.331 5.15zm-2.221-7.213l-.547-1.279a12.72 12.72 0 0 0 4.5-3.211 8.1 8.1 0 0 1 1.736 4.641 14.913 14.913 0 0 0-5.689-.152z" class="cls-2" data-name="Path 803" transform="translate(39.482 252.852)"/>
    </g>
</svg>
