<svg xmlns="http://www.w3.org/2000/svg" width="33.123" height="33.123" viewBox="0 0 33.123 33.123">
    <defs>
        <style>
            .cls-1{fill:#ffd7c9;opacity:.289}.cls-2{fill:#ff8a89}
        </style>
    </defs>
    <g id="Group_1075" data-name="Group 1075" transform="translate(-273 -323)">
        <rect id="Rectangle_60" width="33.123" height="33.123" class="cls-1" data-name="Rectangle 60" rx="11" transform="translate(273 323)"/>
        <path id="Path_807" d="M1039.339-510.247h-.188l-.239-.086a9.836 9.836 0 0 1-3.784-2.337 10.2 10.2 0 0 1-2.94-5.428c-.079-.422-.125-.85-.187-1.275v-1.458a1.127 1.127 0 0 0 .043-.178 9.484 9.484 0 0 1 1.723-4.856 10.088 10.088 0 0 1 10.244-4.4 9.7 9.7 0 0 1 6.15 3.458 10.058 10.058 0 0 1 2.4 8.083 10.154 10.154 0 0 1-3.9 6.815 9.954 9.954 0 0 1-3.158 1.667h-.188a.6.6 0 0 1-.425-.668c.011-.878 0-1.756 0-2.633a2.57 2.57 0 0 0-.668-1.96c.435-.085.851-.146 1.257-.249a4.326 4.326 0 0 0 2.517-1.531 4.85 4.85 0 0 0 .869-2.449 4.37 4.37 0 0 0-.915-3.552.321.321 0 0 1-.041-.265 3.588 3.588 0 0 0-.127-2.458.241.241 0 0 0-.178-.135 2.666 2.666 0 0 0-.8.124 22.66 22.66 0 0 0-1.7.834.575.575 0 0 1-.418.068c-.4-.083-.8-.176-1.2-.223a9.924 9.924 0 0 0-3.568.224.533.533 0 0 1-.321-.064c-.578-.274-1.142-.58-1.731-.829a2.976 2.976 0 0 0-.824-.138.218.218 0 0 0-.173.111 3.522 3.522 0 0 0-.136 2.433.4.4 0 0 1-.073.394 7.723 7.723 0 0 0-.695 1.24 4.869 4.869 0 0 0-.135 2.553 4.311 4.311 0 0 0 1.065 2.412 4.574 4.574 0 0 0 2.476 1.3c.341.069.683.127 1.017.189a5.11 5.11 0 0 0-.379.6 6.274 6.274 0 0 0-.205.67.227.227 0 0 1-.107.136 2.169 2.169 0 0 1-2.251-.137 4.257 4.257 0 0 1-.717-.856 2.1 2.1 0 0 0-1.449-.945 1.709 1.709 0 0 0-.526.1 2.387 2.387 0 0 0 .28.424 4.89 4.89 0 0 1 .6.515 9.429 9.429 0 0 1 .688 1.193 1.884 1.884 0 0 0 .636.766 3.626 3.626 0 0 0 2.358.42c.144-.01.286-.043.454-.069 0 .615-.012 1.2 0 1.788a.588.588 0 0 1-.431.662z" class="cls-2" data-name="Path 807" transform="translate(-753 859.4)"/>
    </g>
</svg>
