<svg xmlns="http://www.w3.org/2000/svg" width="30.672" height="30.672" viewBox="0 0 30.672 30.672">
    <defs>
        <style>
            .cls-1{fill:#e8eaff}.cls-2{fill:#8e95ff}
        </style>
    </defs>
    <g id="Group_863" data-name="Group 863" transform="translate(-1334.144 -594.436)">
        <g id="Group_356" data-name="Group 356">
            <rect id="Rectangle_62" width="30.672" height="30.672" class="cls-1" data-name="Rectangle 62" rx="11" transform="translate(1334.144 594.436)"/>
            <g id="Group_96" data-name="Group 96" transform="translate(0 -107)">
                <path id="Path_163" d="M527.539 82.815c2.245 0 2.511.008 3.4.049a4.643 4.643 0 0 1 1.561.289 2.787 2.787 0 0 1 1.6 1.6 4.657 4.657 0 0 1 .289 1.561c.041.887.049 1.152.049 3.4s-.008 2.511-.049 3.4a4.653 4.653 0 0 1-.289 1.561 2.782 2.782 0 0 1-1.6 1.6 4.654 4.654 0 0 1-1.561.29c-.887.04-1.152.049-3.4.049s-2.511-.009-3.4-.049a4.652 4.652 0 0 1-1.561-.29 2.777 2.777 0 0 1-1.6-1.6 4.651 4.651 0 0 1-.29-1.561c-.04-.887-.049-1.152-.049-3.4s.009-2.511.049-3.4a4.655 4.655 0 0 1 .29-1.561 2.782 2.782 0 0 1 1.6-1.6 4.64 4.64 0 0 1 1.561-.289c.887-.041 1.152-.049 3.4-.049m0-1.515c-2.284 0-2.57.01-3.467.05a6.156 6.156 0 0 0-2.041.391 4.3 4.3 0 0 0-2.459 2.459 6.181 6.181 0 0 0-.391 2.041c-.041.9-.05 1.184-.05 3.467s.01 2.57.05 3.467a6.174 6.174 0 0 0 .391 2.041 4.3 4.3 0 0 0 2.459 2.46 6.175 6.175 0 0 0 2.041.391c.9.041 1.183.05 3.467.05s2.57-.01 3.467-.05a6.178 6.178 0 0 0 2.041-.391 4.3 4.3 0 0 0 2.459-2.46 6.157 6.157 0 0 0 .391-2.041c.041-.9.05-1.183.05-3.467s-.01-2.57-.05-3.467a6.163 6.163 0 0 0-.391-2.041 4.294 4.294 0 0 0-2.459-2.459 6.16 6.16 0 0 0-2.041-.391c-.9-.041-1.184-.05-3.467-.05" class="cls-2" data-name="Path 163" transform="translate(821.942 627.479)"/>
                <path id="Path_164" d="M529.773 87.626a4.318 4.318 0 1 0 4.318 4.318 4.318 4.318 0 0 0-4.318-4.318m0 7.121a2.8 2.8 0 1 1 2.8-2.8 2.8 2.8 0 0 1-2.8 2.8" class="cls-2" data-name="Path 164" transform="translate(819.707 625.244)"/>
                <path id="Path_165" d="M539.531 86.811a1.009 1.009 0 1 1-1.01-1.01 1.01 1.01 0 0 1 1.01 1.01" class="cls-2" data-name="Path 165" transform="translate(815.448 625.889)"/>
            </g>
        </g>
    </g>
</svg>
