<svg xmlns="http://www.w3.org/2000/svg" width="125.407" height="28.44" viewBox="0 0 125.407 28.44">
    <defs>
        <style>
            .cls-1{fill:#0d1126}.cls-2{fill:#8e95ff}.cls-3{fill:#ffbda6}.cls-4{fill:#ff8a89}.cls-5{fill:#98dbc7}.cls-6{fill:#47c690}
        </style>
    </defs>
    <g id="Group_1158" data-name="Group 1158" transform="translate(-127.432 -331)">
        <g id="Group_820" data-name="Group 820" transform="translate(176.012 331)">
            <path id="Path_6" d="M2221.31 1058.029h-10.5c-3.3 0-4.776 1.472-4.776 4.776v19.132c0 1.626.495 2.121 2.121 2.121h.508c1.625 0 2.121-.5 2.121-2.121v-8.771h8.967c1.576 0 2.082-.506 2.082-2.083v-.351c0-1.576-.505-2.083-2.082-2.083h-8.967v-4.949c0-.8.37-1.156 1.2-1.156h9.332c1.576 0 2.083-.506 2.083-2.082v-.353c-.006-1.574-.513-2.08-2.089-2.08z" class="cls-1" data-name="Path 6" transform="translate(-2206.031 -1055.619)"/>
            <g id="Group_1" data-name="Group 1" transform="translate(19.767)">
                <path id="Path_7" d="M2218.047 1056.911a2.912 2.912 0 0 0-2.008.825 2.691 2.691 0 0 0-.829 1.927 2.782 2.782 0 0 0 .831 2.014 2.853 2.853 0 0 0 1.979.794 2.74 2.74 0 0 0 1.951-.8 2.787 2.787 0 0 0 .83-2.009 2.832 2.832 0 0 0-2.754-2.752z" class="cls-1" data-name="Path 7" transform="translate(-2215.21 -1056.911)"/>
                <rect id="Rectangle_2" width="4.672" height="20.016" class="cls-1" data-name="Rectangle 2" rx=".967" transform="translate(.458 8.424)"/>
            </g>
            <path id="Path_8" d="M2228.285 1060.622c-5.864 0-8.838 2.657-8.838 7.9v10.464c0 1.577.5 2.082 2.084 2.082h.506c1.576 0 2.083-.506 2.083-2.082v-10.464c0-2.27.663-3.5 4.165-3.5s4.126 1.178 4.126 3.5v10.464c0 1.577.506 2.082 2.083 2.082h.506c1.579 0 2.083-.506 2.083-2.082v-10.464c-.001-5.389-2.797-7.9-8.798-7.9z" class="cls-1" data-name="Path 8" transform="translate(-2190.556 -1052.628)"/>
            <g id="Group_2" data-name="Group 2" transform="translate(50.065)">
                <path id="Path_9" d="M2232.116 1056.911h-.03a2.788 2.788 0 0 0-1.979.825 2.688 2.688 0 0 0-.829 1.927 2.779 2.779 0 0 0 .832 2.014 2.851 2.851 0 0 0 1.979.794 2.74 2.74 0 0 0 1.951-.8 2.789 2.789 0 0 0 .829-2.009 2.832 2.832 0 0 0-2.752-2.752z" class="cls-1" data-name="Path 9" transform="translate(-2229.278 -1056.911)"/>
                <rect id="Rectangle_3" width="4.672" height="20.016" class="cls-1" data-name="Rectangle 3" rx=".967" transform="translate(.458 8.424)"/>
            </g>
            <path id="Path_10" d="M2242.354 1060.622c-5.862 0-8.836 2.657-8.836 7.9v10.464c0 1.577.506 2.082 2.082 2.082h.508c1.574 0 2.081-.506 2.081-2.082v-10.464c0-2.27.664-3.5 4.165-3.5s4.125 1.178 4.125 3.5v10.464c0 1.577.506 2.082 2.082 2.082h.509c1.575 0 2.082-.506 2.082-2.082v-10.464c.001-5.389-2.796-7.9-8.798-7.9z" class="cls-1" data-name="Path 10" transform="translate(-2174.325 -1052.628)"/>
        </g>
        <g id="Group_934" data-name="Group 934" transform="translate(127.432 331.167)">
            <g id="Group_916" data-name="Group 916">
                <path id="Path_1" d="M2220.57 1057.039v2a9.242 9.242 0 0 1-6.287 8.758v-2.242h-22.923a9.215 9.215 0 0 0-6.552 2.724v-2a9.242 9.242 0 0 1 9.242-9.243z" class="cls-2" data-name="Path 1" transform="translate(-2179.43 -1057.039)"/>
                <path id="Path_2" d="M2214.285 1060.978v2c0 .081 0 .163-.005.243a9.184 9.184 0 0 1-2.953.482h-26.518a9.206 9.206 0 0 1 6.549-2.724z" class="cls-3" data-name="Path 2" transform="translate(-2179.429 -1052.462)"/>
                <path id="Path_3" d="M2215.73 1062.015a9.239 9.239 0 0 1-9.237 9h-3.593c.021-.238.03-.48.03-.725v-2h-12.811a9.215 9.215 0 0 0-6.55 2.725v-2a9.207 9.207 0 0 1 2.691-6.519h26.52a9.217 9.217 0 0 0 2.95-.481z" class="cls-4" data-name="Path 3" transform="translate(-2180.878 -1051.257)"/>
                <path id="Path_4" d="M2202.923 1064.917v2c0 .245-.007.487-.029.724h-19.33a9.213 9.213 0 0 1 6.551-2.724z" class="cls-5" data-name="Path 4" transform="translate(-2180.874 -1047.885)"/>
                <path id="Path_5" d="M2204.342 1066.177a9.238 9.238 0 0 1-9.211 8.516h-12.81v-2a9.2 9.2 0 0 1 2.69-6.518z" class="cls-6" data-name="Path 5" transform="translate(-2182.322 -1046.421)"/>
            </g>
        </g>
    </g>
</svg>
