<svg xmlns="http://www.w3.org/2000/svg" width="82.803" height="33.085" viewBox="0 0 82.803 33.085">
    <defs>
        <style>
            .cls-1{fill:#29a9e1}.cls-2,.cls-3{fill:#fff}.cls-3{font-size:12px;font-family:Avenir-Medium,Avenir;font-weight:500}
        </style>
    </defs>
    <g id="Group_1581" data-name="Group 1581" transform="translate(-485.855 -611.036)">
        <rect id="Rectangle_239" width="82.803" height="33.085" class="cls-1" data-name="Rectangle 239" rx="8.469" transform="translate(485.855 611.036)"/>
        <path id="Path_549" d="M2240.048 751.126a10.285 10.285 0 0 0 15.823-9.134 7.326 7.326 0 0 0 1.8-1.872 7.234 7.234 0 0 1-2.077.569 3.624 3.624 0 0 0 1.589-2 7.232 7.232 0 0 1-2.3.878 3.619 3.619 0 0 0-6.163 3.3 10.266 10.266 0 0 1-7.454-3.779 3.621 3.621 0 0 0 1.12 4.829 3.606 3.606 0 0 1-1.639-.453 3.621 3.621 0 0 0 2.9 3.592 3.618 3.618 0 0 1-1.632.062 3.617 3.617 0 0 0 3.378 2.511 7.267 7.267 0 0 1-5.345 1.497z" class="cls-2" data-name="Path 549" transform="translate(-1742.463 -118.01)"/>
        <text id="Tweet" class="cls-3" transform="translate(536 631)">
            <tspan x="-16.224" y="0">Tweet</tspan>
        </text>
    </g>
</svg>
