<svg xmlns="http://www.w3.org/2000/svg" width="82.803" height="33.085" viewBox="0 0 82.803 33.085">
    <defs>
        <style>
            .cls-1{fill:#50c55e}.cls-2,.cls-3{fill:#fff}.cls-2{fill-rule:evenodd}.cls-3{font-size:12px;font-family:Avenir-Medium,Avenir;font-weight:500}
        </style>
    </defs>
    <g id="Group_1580" data-name="Group 1580" transform="translate(-386.073 -610.893)">
        <rect id="Rectangle_242" width="82.803" height="33.085" class="cls-1" data-name="Rectangle 242" rx="8.469" transform="translate(386.073 610.893)"/>
        <g id="Component_1_1" data-name="Component 1 – 1" transform="translate(397.543 618.36)">
            <path id="Path_553" d="M2004.249 662.3a8.911 8.911 0 0 0-17.8-.163c0 .129-.008.259-.008.388a8.776 8.776 0 0 0 1.277 4.567l-1.606 4.742 4.934-1.569a8.919 8.919 0 0 0 13.213-7.741c-.006-.073-.006-.148-.01-.224zm-8.9 7.658a7.461 7.461 0 0 1-4.121-1.231l-2.878.918.935-2.761a7.357 7.357 0 0 1-1.427-4.359 6.86 6.86 0 0 1 .038-.721 7.494 7.494 0 0 1 14.919.142c.017.192.024.384.024.58a7.469 7.469 0 0 1-7.495 7.432z" class="cls-2" data-name="Path 553" transform="translate(-1986.106 -653.684)"/>
            <path id="Path_554" d="M2001.548 666.394c-.221-.108-1.293-.634-1.493-.705s-.347-.108-.493.109-.567.7-.693.846-.254.163-.475.054a5.894 5.894 0 0 1-1.756-1.076 6.476 6.476 0 0 1-1.214-1.5c-.125-.217-.013-.333.1-.442s.217-.255.329-.38c.029-.038.054-.071.079-.1a2.4 2.4 0 0 0 .138-.259.391.391 0 0 0-.017-.379c-.054-.108-.493-1.176-.676-1.61s-.363-.359-.492-.359-.271-.021-.417-.021a.808.808 0 0 0-.584.271 2.427 2.427 0 0 0-.763 1.81 2.777 2.777 0 0 0 .112.738 4.94 4.94 0 0 0 .78 1.5 8.976 8.976 0 0 0 3.729 3.274c2.223.863 2.223.576 2.624.538a2.175 2.175 0 0 0 1.472-1.03 1.79 1.79 0 0 0 .13-1.03c-.057-.087-.203-.143-.42-.249z" class="cls-2" data-name="Path 554" transform="translate(-1988.227 -655.767)"/>
        </g>
        <text id="Share" class="cls-3" transform="translate(437 632)">
            <tspan x="-15.234" y="0">Share</tspan>
        </text>
    </g>
</svg>
