<svg xmlns="http://www.w3.org/2000/svg" width="202.451" height="309.653" viewBox="0 0 202.451 309.653">
    <defs>
        <style>
            .cls-1{fill:#7347f2}.cls-17,.cls-2{fill:none}.cls-3,.cls-4,.cls-5{fill:#fff}.cls-3{opacity:.5}.cls-4{opacity:.2}.cls-5{opacity:.75}.cls-6{fill-rule:evenodd;fill:url(#linear-gradient)}.cls-7,.cls-9{fill:#8e95ff}.cls-7{opacity:.25}.cls-8{fill:#f8f8f8}.cls-10{fill:#ffbda6}.cls-11{fill:#ff8a89}.cls-12{fill:#98dbc7}.cls-13{fill:#47c690}.cls-14{clip-path:url(#clip-path)}.cls-15{fill:#ffd7c9}.cls-16{fill:#efc75e}.cls-17{stroke:#7347f2;stroke-linecap:round;stroke-width:3px}
        </style>
        <linearGradient id="linear-gradient" x1="71.985" x2="73.07" y1="-10.227" y2="-11.055" gradientUnits="objectBoundingBox">
            <stop offset="0" stop-color="#ff9"/>
            <stop offset="1" stop-color="#a19660"/>
        </linearGradient>
        <clipPath id="clip-path">
            <rect id="Rectangle_2158" width="290.426" height="183.145" class="cls-1" data-name="Rectangle 2158" rx="8.945" transform="rotate(90 322.386 645.623)"/>
        </clipPath>
    </defs>
    <g id="Group_1625" data-name="Group 1625" transform="translate(-779.558 -351.01)">
        <g id="Group_1557" data-name="Group 1557">
            <g id="Group_1554" data-name="Group 1554" transform="translate(14 47)">
                <rect id="Rectangle_53" width="290.426" height="183.145" class="cls-1" data-name="Rectangle 53" rx="8.945" transform="rotate(90 322.386 645.623)"/>
                <g id="Group_82" data-name="Group 82" transform="translate(786.836 563.723)">
                    <path id="Rectangle_54" d="M0 0h59.569v48.862H0z" class="cls-2" data-name="Rectangle 54"/>
                </g>
                <g id="Group_86" data-name="Group 86" transform="translate(879.589 400.128)">
                    <path id="Path_141" d="M17.74 2.353A1.378 1.378 0 0 0 15.791.4 9.521 9.521 0 0 1 2.344.4 1.376 1.376 0 0 0 .4 2.353a12.269 12.269 0 0 0 17.338 0zm0 0" class="cls-3" data-name="Path 141" transform="translate(2.586 3.717)"/>
                    <path id="Path_142" d="M10.3 2.353A1.378 1.378 0 0 0 8.351.4a4.246 4.246 0 0 1-6.006 0A1.374 1.374 0 0 0 .4 2.347a7 7 0 0 0 9.9.006zm0 0" class="cls-4" data-name="Path 142" transform="translate(6.308)"/>
                    <path id="Path_143" d="M.365 2.135a15.994 15.994 0 0 0 22.582 0A1.25 1.25 0 0 0 21.18.368a13.484 13.484 0 0 1-19.052 0A1.248 1.248 0 0 0 .365 2.135zm0 0" class="cls-5" data-name="Path 143" transform="translate(0 8.193)"/>
                </g>
                <g id="Group_87" data-name="Group 87" transform="translate(876.629 355.987)">
                    <path id="Path_144" d="M3.6 38.337a3.5 3.5 0 0 1-3.6-3.4V3.4A3.5 3.5 0 0 1 3.6 0h22.03a3.5 3.5 0 0 1 3.6 3.4v31.541a3.5 3.5 0 0 1-3.6 3.4z" class="cls-6" data-name="Path 144" transform="translate(0 .004)"/>
                    <path id="Path_145" d="M0 0v18.559h.234V0z" data-name="Path 145" transform="translate(24.402)"/>
                    <path id="Path_146" d="M0 .22h4.689V0H0v.22z" data-name="Path 146" transform="translate(24.519 18.449)"/>
                    <path id="Path_147" d="M.234 18.044V0H0v18.044z" data-name="Path 147" transform="translate(24.427 20.297)"/>
                    <path id="Path_148" d="M0 .22h4.689V0H0v.22z" data-name="Path 148" transform="translate(24.544 20.186)"/>
                    <path id="Path_149" d="M0 0v18.632h.234V0z" data-name="Path 149" transform="translate(4.675 .003)"/>
                    <path id="Path_150" d="M4.766 0H0v.22h4.766V0z" data-name="Path 150" transform="translate(.026 18.526)"/>
                    <path id="Path_151" d="M.234 17.677V0H0v17.677z" data-name="Path 151" transform="translate(4.65 20.666)"/>
                    <path id="Path_152" d="M4.766 0H0v.221h4.766V0z" data-name="Path 152" transform="translate(.001 20.556)"/>
                    <path id="Path_153" d="M8.883 18.888a3.983 3.983 0 0 0-.121-.953l-.228.049a3.717 3.717 0 0 1 .114.9zm-.117-.927V0h-.233v17.961zm-.233 0v.024l.114-.024zM.117 0v17.961h.234V0zm0 17.936a3.919 3.919 0 0 0-.117.952h.233a3.773 3.773 0 0 1 .115-.9l-.228-.049zm.228.049v-.024H.233l.115.024zm-.348.9a4.322 4.322 0 0 0 4.442 4.19v-.22A4.327 4.327 0 0 1 1.466 21.7a3.853 3.853 0 0 1-1.233-2.812zm.233 0zm4.208 4.19a4.323 4.323 0 0 0 4.442-4.19h-.231A3.852 3.852 0 0 1 7.417 21.7a4.327 4.327 0 0 1-2.976 1.162v.22zm0-.22zm4.207-3.97z" data-name="Path 153" transform="translate(10.199 .015)"/>
                    <path id="Path_154" d="M0 0v15.24h.234V0z" data-name="Path 154" transform="translate(14.68 22.983)"/>
                    <path id="Path_155" d="M.188 1.314A3.125 3.125 0 0 1 2.633.222a5.24 5.24 0 0 1 3.082.986l.14-.177C3.834-.388 1.217-.347 0 1.183l.188.132z" data-name="Path 155" transform="translate(18.91 17.511)"/>
                    <path id="Path_156" d="M.187 1.314A3.131 3.131 0 0 1 2.632.222a5.233 5.233 0 0 1 3.082.985l.14-.177C3.834-.388 1.216-.346 0 1.183l.187.13z" data-name="Path 156" transform="translate(4.652 17.364)"/>
                </g>
                <rect id="Rectangle_58" width="99.44" height="99.44" class="cls-7" data-name="Rectangle 58" rx="49.72" transform="translate(841.32 342.996)"/>
                <g id="Group_1553" data-name="Group 1553" transform="translate(886.842 576.489)">
                    <g id="Group_820" data-name="Group 820" transform="translate(26.667)">
                        <path id="Path_6" d="M2214.418 1058.029h-5.765c-1.813 0-2.622.808-2.622 2.622v10.5c0 .893.272 1.165 1.164 1.165h.279c.892 0 1.164-.272 1.164-1.165v-4.814h4.923c.865 0 1.143-.278 1.143-1.143V1065c0-.865-.277-1.143-1.143-1.143h-4.923v-2.716c0-.44.2-.635.657-.635h5.122c.865 0 1.144-.278 1.144-1.143v-.194c.001-.862-.278-1.14-1.143-1.14z" class="cls-8" data-name="Path 6" transform="translate(-2206.031 -1056.706)"/>
                        <g id="Group_1" data-name="Group 1" transform="translate(10.851)">
                            <path id="Path_7" d="M2216.767 1056.911a1.6 1.6 0 0 0-1.1.453 1.477 1.477 0 0 0-.455 1.058 1.526 1.526 0 0 0 .456 1.105 1.566 1.566 0 0 0 1.086.436 1.5 1.5 0 0 0 1.071-.438 1.527 1.527 0 0 0 .455-1.1 1.554 1.554 0 0 0-1.511-1.511z" class="cls-8" data-name="Path 7" transform="translate(-2215.21 -1056.911)"/>
                            <rect id="Rectangle_2" width="2.565" height="10.988" class="cls-8" data-name="Rectangle 2" rx=".967" transform="translate(.252 4.624)"/>
                        </g>
                        <path id="Path_8" d="M2224.3 1060.622c-3.219 0-4.851 1.459-4.851 4.336v5.744c0 .865.277 1.143 1.144 1.143h.278c.865 0 1.143-.278 1.143-1.143v-5.744c0-1.246.363-1.921 2.286-1.921s2.265.647 2.265 1.921v5.744c0 .865.278 1.143 1.144 1.143h.278c.867 0 1.143-.278 1.143-1.143v-5.744c-.003-2.958-1.537-4.336-4.83-4.336z" class="cls-8" data-name="Path 8" transform="translate(-2203.587 -1056.234)"/>
                        <g id="Group_2" data-name="Group 2" transform="translate(27.483)">
                            <path id="Path_9" d="M2230.836 1056.911h-.017a1.53 1.53 0 0 0-1.086.453 1.477 1.477 0 0 0-.456 1.058 1.528 1.528 0 0 0 .457 1.105 1.565 1.565 0 0 0 1.086.436 1.506 1.506 0 0 0 1.071-.438 1.532 1.532 0 0 0 .455-1.1 1.555 1.555 0 0 0-1.511-1.511z" class="cls-8" data-name="Path 9" transform="translate(-2229.278 -1056.911)"/>
                            <rect id="Rectangle_3" width="2.565" height="10.988" class="cls-8" data-name="Rectangle 3" rx=".967" transform="translate(.252 4.624)"/>
                        </g>
                        <path id="Path_10" d="M2238.368 1060.622c-3.218 0-4.851 1.459-4.851 4.336v5.744c0 .865.278 1.143 1.143 1.143h.279c.864 0 1.142-.278 1.142-1.143v-5.744c0-1.246.365-1.921 2.287-1.921s2.264.647 2.264 1.921v5.744c0 .865.278 1.143 1.143 1.143h.28c.864 0 1.143-.278 1.143-1.143v-5.744c.002-2.958-1.535-4.336-4.83-4.336z" class="cls-8" data-name="Path 10" transform="translate(-2201.025 -1056.234)"/>
                    </g>
                    <g id="Group_934" data-name="Group 934" transform="translate(0 .092)">
                        <g id="Group_916" data-name="Group 916">
                            <path id="Path_1" d="M2204.439 1057.039v1.1a5.074 5.074 0 0 1-3.452 4.808v-1.233H2188.4a5.058 5.058 0 0 0-3.6 1.5v-1.1a5.073 5.073 0 0 1 5.073-5.074z" class="cls-9" data-name="Path 1" transform="translate(-2181.856 -1057.039)"/>
                            <path id="Path_2" d="M2200.989 1060.978v1.233a5.05 5.05 0 0 1-1.621.265h-14.557a5.055 5.055 0 0 1 3.6-1.5z" class="cls-10" data-name="Path 2" transform="translate(-2181.855 -1056.304)"/>
                            <path id="Path_3" d="M2201.222 1062.015a5.071 5.071 0 0 1-5.071 4.94h-1.973c.012-.13.017-.264.017-.4v-1.1h-7.033a5.058 5.058 0 0 0-3.6 1.5v-1.1a5.053 5.053 0 0 1 1.478-3.578h14.56a5.059 5.059 0 0 0 1.622-.262z" class="cls-11" data-name="Path 3" transform="translate(-2182.09 -1056.11)"/>
                            <path id="Path_4" d="M2194.19 1064.917v1.1c0 .134 0 .267-.016.4h-10.611a5.058 5.058 0 0 1 3.6-1.495z" class="cls-12" data-name="Path 4" transform="translate(-2182.087 -1055.568)"/>
                            <path id="Path_5" d="M2194.41 1066.177a5.071 5.071 0 0 1-5.056 4.675h-7.032v-1.1a5.053 5.053 0 0 1 1.476-3.578z" class="cls-13" data-name="Path 5" transform="translate(-2182.322 -1055.333)"/>
                        </g>
                    </g>
                </g>
                <g id="Mask_Group_99" class="cls-14" data-name="Mask Group 99">
                    <circle id="Ellipse_120" cx="34" cy="34" r="34" class="cls-12" data-name="Ellipse 120" transform="translate(751 400)"/>
                    <circle id="Ellipse_121" cx="37.5" cy="37.5" r="37.5" class="cls-13" data-name="Ellipse 121" transform="translate(928 284)"/>
                    <circle id="Ellipse_122" cx="40" cy="40" r="40" class="cls-15" data-name="Ellipse 122" transform="translate(920 428)"/>
                    <circle id="Ellipse_123" cx="54.5" cy="54.5" r="54.5" class="cls-11" data-name="Ellipse 123" transform="translate(745 276)"/>
                </g>
            </g>
            <g id="visa" transform="translate(809.896 521.726)">
                <g id="Group_1556" data-name="Group 1556" transform="translate(5.791 100.23)">
                    <g id="Group_1555" data-name="Group 1555">
                        <path id="Path_1074" d="M46.8 100.23l-3.11 19.355h4.971l3.108-19.355zm15 7.884c-1.737-.858-2.8-1.437-2.8-2.314.021-.8.9-1.615 2.864-1.615a8.651 8.651 0 0 1 3.7.717l.451.2.676-4.049a12.547 12.547 0 0 0-4.462-.8c-4.909 0-8.366 2.552-8.388 6.2-.041 2.694 2.475 4.189 4.357 5.086 1.923.92 2.578 1.516 2.578 2.334-.021 1.255-1.555 1.834-2.986 1.834a10.11 10.11 0 0 1-4.665-1l-.655-.3-.7 4.208a15.525 15.525 0 0 0 5.545 1c5.217 0 8.612-2.514 8.655-6.4.02-2.13-1.306-3.765-4.17-5.101zm17.637-7.824h-3.849a2.463 2.463 0 0 0-2.6 1.557L65.6 119.585h5.217l1.437-3.84H78.1l.746 3.856h4.6zm-5.728 11.579c.1.01 2-6.269 2-6.269l1.514 6.269zM39.538 100.23l-4.871 13.15-.531-2.593a14.45 14.45 0 0 0-6.875-7.859l4.46 16.637h5.26l7.819-19.333h-5.26z" class="cls-8" data-name="Path 1074" transform="translate(-27.262 -100.23)"/>
                    </g>
                </g>
                <path id="Path_1075" d="M11.027 102.74a3.248 3.248 0 0 0-3.234-2.492H.079l-.079.358c6.017 1.483 11.068 6.048 12.706 10.341z" class="cls-16" data-name="Path 1075" transform="translate(0 -.014)"/>
            </g>
        </g>
        <g id="Group_1559" data-name="Group 1559" transform="rotate(-19 897.989 378.046)">
            <path id="Path_1076" d="M-8894.05-2413.187v9.78" class="cls-17" data-name="Path 1076" transform="rotate(36 -8248.352 13898.995)"/>
            <path id="Path_1077" d="M-8894.05-2413.187v9.78" class="cls-17" data-name="Path 1077" transform="rotate(-13 7958.343 -43604.704)"/>
            <path id="Path_1078" d="M-8894.05-2413.187v9.78" class="cls-17" data-name="Path 1078" transform="rotate(-58 -1576.589 -9777.495)"/>
        </g>
    </g>
</svg>
