<svg xmlns="http://www.w3.org/2000/svg" id="Group_1039" width="33.123" height="33.123" data-name="Group 1039" viewBox="0 0 33.123 33.123">
    <defs>
        <style>
            .cls-1,.cls-2{fill:#47c690}.cls-1{opacity:.24}
        </style>
    </defs>
    <rect id="Rectangle_60" width="33.123" height="33.123" class="cls-1" data-name="Rectangle 60" rx="11"/>
    <path id="Path_161" d="M519.5 213.322a10.3 10.3 0 0 0 15.842-9.143 7.366 7.366 0 0 0 1.807-1.874 7.254 7.254 0 0 1-2.08.57 3.625 3.625 0 0 0 1.592-2 7.265 7.265 0 0 1-2.3.879 3.623 3.623 0 0 0-6.17 3.3 10.275 10.275 0 0 1-7.462-3.783 3.625 3.625 0 0 0 1.12 4.834 3.613 3.613 0 0 1-1.641-.453 3.625 3.625 0 0 0 2.9 3.6 3.635 3.635 0 0 1-1.635.061 3.624 3.624 0 0 0 3.382 2.515 7.28 7.28 0 0 1-5.355 1.494z" class="cls-2" data-name="Path 161" transform="translate(-511.76 -191.216)"/>
</svg>
